<svg xmlns="http://www.w3.org/2000/svg"  viewBox="0 0 64 64" width="48px" height="48px"><path fill='white' d="M34.325,8.175C40.926,11.548,52,19.438,52,34.385C52,45.384,43.215,54,32,54c-11.775,0-20-8.119-20-19.743	c0-6.107,3.802-12.611,9.245-15.818c0.73-0.429,1.597-0.441,2.316-0.036c0.718,0.403,1.172,1.174,1.185,2.012	c0.016,1.314,0.469,2.973,0.9,4.048c5.902-2.719,6.31-8.982,5.535-13.941c-0.133-0.844,0.214-1.705,0.883-2.19	C32.719,7.858,33.583,7.798,34.325,8.175z M32,50c10.016,0,16-7.939,16-15.615c0-10.809-6.904-17.391-12.538-20.962	c0.203,7.753-3.351,13.282-10.057,15.411l-1.126,0.357l-0.856-0.813c-1.03-0.978-1.822-2.996-2.269-4.919	C18.355,25.981,16,29.999,16,34.257C16,42.093,20.947,50,32,50z"/></svg>